<svg width="274" height="232" viewBox="0 0 274 232" fill="none" xmlns="http://www.w3.org/2000/svg">
<rect x="-0.5" y="0.5" width="180.615" height="128.879" transform="matrix(-1 0 0 1 210.797 4.31152)" fill="white" stroke="black"/>
<rect x="-0.559458" y="0.432443" width="208.55" height="167.061" transform="matrix(-0.991901 -0.127015 -0.127015 0.991901 247.351 30.3153)" fill="white" stroke="black"/>
<path d="M21.1542 216.684C15.4093 216.684 10.5447 214.676 6.53098 210.653L6.53017 210.653C2.50722 206.639 0.499982 201.774 0.499983 196.029L0.499998 21.1543C0.499999 15.4093 2.50728 10.5398 6.53059 6.51649C10.5443 2.50282 15.409 0.500001 21.1543 0.500002L138.208 0.500012C140.957 0.500012 143.653 1.07218 146.301 2.22128C148.948 3.37417 151.183 4.86823 153.015 6.69984L210.484 64.1689C212.315 66.0004 213.809 68.2357 214.962 70.8825C216.111 73.5304 216.684 76.227 216.684 78.9759L216.684 196.029C216.684 201.775 214.681 206.639 210.667 210.653C206.644 214.676 201.774 216.684 196.029 216.684L21.1542 216.684ZM52.1805 161.272L165.003 161.272C166.537 161.272 167.842 160.756 168.882 159.716C169.923 158.676 170.439 157.37 170.439 155.836C170.439 154.302 169.923 152.997 168.882 151.957C167.842 150.917 166.537 150.4 165.003 150.4L52.1805 150.4C50.6465 150.4 49.3413 150.917 48.3012 151.957C47.2611 152.997 46.7445 154.302 46.7445 155.836C46.7445 157.37 47.2611 158.676 48.3012 159.716C49.3413 160.756 50.6465 161.272 52.1805 161.272ZM52.1805 114.028L165.003 114.028C166.537 114.028 167.842 113.511 168.882 112.471C169.923 111.431 170.439 110.126 170.439 108.592C170.439 107.058 169.923 105.753 168.882 104.713C167.842 103.673 166.537 103.156 165.003 103.156L52.1805 103.156C50.6465 103.156 49.3413 103.673 48.3012 104.713C47.2611 105.753 46.7445 107.058 46.7445 108.592C46.7445 110.126 47.2611 111.431 48.3012 112.471C49.3413 113.511 50.6465 114.028 52.1805 114.028ZM52.1805 66.7833L117.759 66.7833C119.293 66.7833 120.598 66.2667 121.638 65.2266C122.678 64.1865 123.195 62.8813 123.195 61.3473C123.195 59.8134 122.678 58.5082 121.638 57.4681C120.598 56.428 119.293 55.9114 117.759 55.9114L52.1805 55.9114C50.6465 55.9114 49.3413 56.428 48.3012 57.4681C47.2611 58.5082 46.7445 59.8134 46.7445 61.3473C46.7445 62.8813 47.2611 64.1865 48.3012 65.2266C49.3413 66.2667 50.6465 66.7833 52.1805 66.7833Z" fill="#1C1B1F" stroke="black"/>
<mask id="mask0_1_135" style="mask-type:alpha" maskUnits="userSpaceOnUse" x="127" y="85" width="147" height="147">
<rect x="127.512" y="85.7061" width="145.49" height="145.49" fill="white"/>
</mask>
<g mask="url(#mask0_1_135)">
<path d="M238.6 132.687L228.446 122.533L234.962 116.017C235.569 115.411 236.352 115.107 237.311 115.107C238.271 115.107 239.105 115.461 239.812 116.168L245.116 121.473C245.723 122.079 246.026 122.862 246.026 123.822C246.026 124.781 245.672 125.615 244.965 126.322L238.6 132.687ZM160.096 205.129C158.883 205.129 157.898 204.75 157.141 203.993C156.383 203.235 156.004 202.25 156.004 201.037V196.642C156.004 196.137 156.105 195.657 156.307 195.203C156.509 194.748 156.812 194.268 157.216 193.763L226.172 124.958L236.175 134.961L167.37 203.917C166.865 204.321 166.385 204.624 165.931 204.826C165.476 205.028 164.996 205.129 164.491 205.129H160.096Z" fill="white" stroke="black"/>
</g>
</svg>
