<svg width="656" height="838" viewBox="0 0 656 838" fill="none" xmlns="http://www.w3.org/2000/svg">
<path d="M313.125 846.546C301.296 850.119 291.387 848.69 283.399 842.259C275.383 835.827 271.375 826.537 271.375 814.389C271.375 808.672 272.948 802.769 276.093 796.68C279.21 790.62 282.856 785.804 287.031 782.231L354.875 729.706V493.883L53.2313 584.996C38.6188 589.284 26.0938 587.497 15.6562 579.637C5.21875 571.776 0 559.627 0 543.191C0 535.33 2.26842 527.284 6.80525 519.051C11.3143 510.848 17.0479 504.959 24.0063 501.386L354.875 300.936V65.112C354.875 46.5319 360.79 31.1676 372.619 19.0191C384.448 6.87063 399.408 0.796387 417.5 0.796387C435.592 0.796387 450.552 6.87063 462.381 19.0191C474.21 31.1676 480.125 46.5319 480.125 65.112V300.936L810.994 501.386C817.952 504.959 823.686 511.033 828.195 519.609C832.732 528.184 835 536.402 835 544.263C835 559.985 829.781 571.776 819.344 579.637C808.906 587.497 796.381 589.284 781.769 584.996L480.125 493.883V729.706L547.969 782.231C552.144 785.804 555.79 790.62 558.907 796.68C562.052 802.769 563.625 808.672 563.625 814.389C563.625 826.537 559.631 835.827 551.643 842.259C543.627 848.69 533.704 850.119 521.875 846.546L417.5 815.46L313.125 846.546Z" fill="#F5F5F5"/>
</svg>
