<svg width="269" height="271" viewBox="0 0 269 271" fill="none" xmlns="http://www.w3.org/2000/svg">
<circle cx="134.001" cy="135" r="124.5" fill="white" stroke="black"/>
<circle cx="134.501" cy="135.5" r="63" fill="white" stroke="black"/>
<path d="M47.9769 138.159L28.4427 136.554L28.7201 133.177L36.8966 133.849L37.9305 121.263L29.754 120.592L30.0291 117.243L49.5633 118.848L49.2882 122.196L41.1118 121.525L40.0779 134.11L48.2543 134.782L47.9769 138.159Z" fill="black"/>
<path d="M51.4379 110.639L37.2276 94.4524L38.8128 90.9285L60.3633 90.7982L58.8815 94.0922L54.5828 94.0927L50.0684 104.128L52.9082 107.371L51.4379 110.639ZM41.2631 94.1493L47.7688 101.528L51.1 94.1225L41.2631 94.1493Z" fill="black"/>
<path d="M60.3193 81.1238L62.6782 78.5382C63.584 78.9856 64.5107 79.0223 65.4581 78.6486C66.4055 78.2748 67.4579 77.4536 68.6154 76.1849C70.8296 73.7578 71.3437 72.0033 70.1578 70.9214C69.5924 70.4055 68.8618 70.3201 67.9659 70.6651C67.0562 70.9975 65.7532 71.8302 64.057 73.1633C61.595 75.0864 59.6575 76.1992 58.2443 76.5019C56.8438 76.7907 55.5298 76.3753 54.3025 75.2556C52.8959 73.9724 52.3008 72.5198 52.5171 70.8978C52.7196 69.2633 53.7582 67.4187 55.6327 65.364C57.4444 63.3782 59.1541 62.1965 60.762 61.8189C62.3825 61.4275 64.0857 61.8316 65.8717 63.0314L63.4939 65.6378C62.6133 65.1628 61.7181 65.0916 60.8084 65.424C59.9113 65.7426 58.9218 66.4948 57.8398 67.6808C55.7514 69.97 55.2726 71.6303 56.4034 72.662C56.9274 73.14 57.6053 73.2279 58.4371 72.9255C59.2551 72.6105 60.4744 71.8279 62.0952 70.5776C64.6992 68.5819 66.7203 67.4189 68.1586 67.0887C69.5969 66.7585 70.9435 67.1658 72.1984 68.3107C73.6602 69.6442 74.2778 71.1553 74.0513 72.8437C73.8111 74.5196 72.7096 76.4332 70.747 78.5844C68.8725 80.6391 67.1124 81.876 65.4667 82.295C63.8199 82.6876 62.1041 82.2973 60.3193 81.1238Z" fill="black"/>
<path d="M79.4686 62.1969L82.4843 60.4205C83.2182 61.1148 84.0929 61.4228 85.1084 61.3446C86.1238 61.2664 87.3714 60.7915 88.8512 59.9199C91.6819 58.2526 92.6899 56.7273 91.8752 55.344C91.4868 54.6846 90.8137 54.3878 89.8559 54.4537C88.8887 54.5034 87.3983 54.9155 85.3847 55.69C82.4656 56.8028 80.2863 57.2957 78.8466 57.1688C77.4231 57.0324 76.2898 56.2485 75.4466 54.817C74.4803 53.1764 74.3393 51.613 75.0237 50.1267C75.6985 48.6243 77.2342 47.1673 79.6307 45.7557C81.9468 44.3915 83.9288 43.7657 85.5766 43.8783C87.2405 43.9814 88.7492 44.8693 90.1026 46.5418L87.0627 48.3323C86.361 47.6191 85.5265 47.2874 84.5593 47.3372C83.6081 47.3775 82.441 47.805 81.0577 48.6198C78.3878 50.1924 77.4413 51.6382 78.2181 52.957C78.5781 53.5682 79.2001 53.8518 80.084 53.8077C80.9585 53.7476 82.3543 53.3588 84.2714 52.6412C87.3476 51.5008 89.6215 50.9846 91.0933 51.0926C92.5651 51.2006 93.732 51.9864 94.5941 53.45C95.5984 55.1549 95.7436 56.7808 95.03 58.3277C94.3069 59.8585 92.6907 61.3629 90.1817 62.8408C87.7852 64.2524 85.7389 64.9161 84.0428 64.8319C82.3533 64.7222 80.8286 63.8438 79.4686 62.1969Z" fill="black"/>
<path d="M105.627 55.1508L100.98 36.1097L104.271 35.3064L108.162 51.2465L119.858 48.3919L120.615 51.4929L105.627 55.1508Z" fill="black"/>
<path d="M145.599 51.5769L129.41 50.709L130.46 31.1371L146.648 32.005L146.478 35.1925L133.672 34.5059L133.398 39.6226L144.805 40.2342L144.646 43.1979L133.239 42.5863L132.964 47.703L145.77 48.3895L145.599 51.5769Z" fill="black"/>
<path d="M181.094 66.1267L178.424 64.0405L190.493 48.5969L203.047 58.4071L201.081 60.9222L191.197 53.1982L188.111 57.1473L196.892 64.0093L194.926 66.5244L186.146 59.6624L181.094 66.1267Z" fill="black"/>
<path d="M199.357 83.4055L197.453 80.6028L213.668 69.5911L219.472 78.1384C220.804 80.0995 221.396 81.7849 221.248 83.1944C221.099 84.6039 220.191 85.875 218.523 87.0076C216.454 88.4129 214.595 88.6489 212.946 87.7156C213.24 89.4113 212.538 90.8359 210.839 91.9895L206.971 94.6166L205.067 91.8138L208.82 89.2654C209.576 88.7515 209.972 88.1553 210.008 87.4768C210.044 86.7982 209.731 85.9725 209.07 84.9997L205.264 79.3941L199.357 83.4055ZM207.904 77.6008L211.695 83.1832C212.398 84.2178 213.113 84.8381 213.839 85.0442C214.566 85.2502 215.369 85.0543 216.249 84.4566C217.13 83.8588 217.6 83.1895 217.661 82.4486C217.748 81.7126 217.435 80.8196 216.722 79.7696L212.931 74.1872L207.904 77.6008Z" fill="black"/>
<path d="M215.915 119.532L211.346 103.978L230.152 98.4534L234.721 114.008L231.658 114.908L228.044 102.604L223.128 104.048L226.347 115.009L223.5 115.845L220.28 104.884L215.364 106.329L218.978 118.633L215.915 119.532Z" fill="black"/>
<path d="M216.855 144.722L217.069 128.512L236.667 128.771L236.453 144.981L233.261 144.939L233.43 132.116L228.307 132.048L228.156 143.471L225.188 143.432L225.339 132.009L220.216 131.942L220.046 144.765L216.855 144.722Z" fill="black"/>
<path d="M210.958 180.578L208.916 183.42C207.965 183.081 207.04 183.152 206.143 183.634C205.245 184.115 204.295 185.053 203.293 186.448C201.376 189.116 201.07 190.919 202.374 191.855C202.995 192.302 203.731 192.302 204.581 191.855C205.445 191.419 206.643 190.44 208.172 188.919C210.394 186.722 212.189 185.392 213.557 184.927C214.915 184.477 216.268 184.737 217.617 185.706C219.163 186.817 219.924 188.19 219.897 189.826C219.886 191.473 219.069 193.426 217.447 195.685C215.878 197.868 214.318 199.241 212.765 199.803C211.201 200.38 209.462 200.177 207.549 199.193L209.607 196.328C210.537 196.697 211.434 196.664 212.299 196.228C213.153 195.807 214.048 194.945 214.985 193.641C216.793 191.124 217.075 189.419 215.832 188.526C215.256 188.113 214.573 188.104 213.782 188.501C213.006 188.909 211.886 189.828 210.422 191.259C208.067 193.544 206.195 194.934 204.805 195.429C203.415 195.925 202.03 195.677 200.651 194.686C199.044 193.531 198.254 192.102 198.283 190.399C198.327 188.706 199.198 186.678 200.897 184.313C202.52 182.054 204.124 180.621 205.71 180.013C207.3 179.432 209.049 179.62 210.958 180.578Z" fill="black"/>
<path d="M190.005 197.797L201.473 213.692L198.725 215.675L193.925 209.021L183.684 216.41L188.484 223.063L185.759 225.029L174.292 209.134L177.017 207.168L181.817 213.821L192.058 206.433L187.258 199.78L190.005 197.797Z" fill="black"/>
<path d="M165.22 212.988L172.379 231.234L169.225 232.471L162.066 214.226L165.22 212.988Z" fill="black"/>
<path d="M152.809 217.43L155.675 236.819L145.925 238.26C143.579 238.606 141.796 238.351 140.575 237.494C139.357 236.655 138.584 235.127 138.256 232.912C137.929 230.696 138.225 229.001 139.146 227.827C140.07 226.671 141.704 225.92 144.05 225.574L150.448 224.628L149.458 217.925L152.809 217.43ZM150.915 227.786L144.71 228.703C143.473 228.886 142.605 229.269 142.106 229.852C141.61 230.453 141.444 231.308 141.608 232.416C141.774 233.543 142.181 234.313 142.827 234.727C143.454 235.144 144.396 235.259 145.652 235.074L151.856 234.157L150.915 227.786Z" fill="black"/>
<path d="M127.718 219.695L124.746 239.069L115.004 237.575C112.661 237.215 111.032 236.446 110.118 235.267C109.2 234.107 108.911 232.419 109.251 230.205C109.591 227.991 110.373 226.459 111.599 225.608C112.822 224.776 114.605 224.539 116.948 224.899L123.342 225.879L124.369 219.182L127.718 219.695ZM122.858 229.035L116.658 228.084C115.422 227.894 114.48 228.004 113.831 228.415C113.18 228.844 112.77 229.612 112.6 230.719C112.427 231.844 112.589 232.7 113.084 233.286C113.561 233.869 114.427 234.257 115.682 234.449L121.881 235.4L122.858 229.035Z" fill="black"/>
<path d="M103.252 214.173L95.9934 232.38L92.8462 231.125L100.105 212.919L103.252 214.173Z" fill="black"/>
<path d="M79.4737 224.925L76.737 222.927L75.4346 203.813L66.7853 215.665L64.0486 213.667L75.603 197.835L78.3397 199.832L79.6421 218.947L88.2913 207.095L91.028 209.092L79.4737 224.925Z" fill="black"/>
<path d="M60.7842 196.625C57.887 198.605 55.3358 199.388 53.1305 198.973C50.8993 198.554 48.7935 196.896 46.8132 193.998C45.1805 191.61 44.3686 189.463 44.3776 187.557C44.3712 185.662 45.1918 183.869 46.8394 182.178L48.846 185.114C47.3937 187.124 47.5945 189.485 49.4484 192.197C50.7651 194.124 52.1783 195.215 53.688 195.472C55.1717 195.724 56.8998 195.176 58.8723 193.828C60.8603 192.469 61.9905 191.029 62.2628 189.509C62.5246 187.974 61.9287 186.142 60.475 184.016C59.3374 182.351 58.2562 181.316 57.2315 180.908C56.1963 180.485 55.1239 180.653 54.0143 181.411L53.2977 181.901L56.9635 187.264L54.5132 188.939L48.9356 180.779L52.1025 178.614C54.1367 177.224 56.0322 176.821 57.789 177.407C59.5352 177.977 61.3143 179.587 63.126 182.238C65.2433 185.335 66.1105 188.01 65.7275 190.261C65.3446 192.513 63.6968 194.634 60.7842 196.625Z" fill="black"/>
</svg>
