<svg width="221" height="203" viewBox="0 0 221 203" fill="none" xmlns="http://www.w3.org/2000/svg">
<path opacity="0.4" d="M124.599 154.385C124.599 187.89 139.027 203 173.128 203C206.573 203 221 187.89 221 154.385L221 115.625C221 34.8188 192.145 -3.5109e-06 125.911 -9.3013e-06L125.911 30.877C161.979 30.877 177.062 53.8706 177.062 106.427C140.338 106.427 124.599 118.252 124.599 154.385ZM4.25005e-06 154.385C1.26353e-06 188.547 13.7715 203 47.8724 203C81.3175 203 95.7448 187.89 95.7448 154.385L95.7448 115.625C95.7448 34.8188 67.546 -1.44037e-05 1.31159 -2.01941e-05L1.31158 30.877C36.0683 30.877 51.8071 53.8705 52.4629 106.427C15.7389 106.427 7.4663e-06 117.595 4.25005e-06 154.385Z" fill="#EAEAEA"/>
</svg>
